<svg id="SvgjsSvg1150" width="635" height="469" xmlns="http://www.w3.org/2000/svg" version="1.1" xmlns:xlink="http://www.w3.org/1999/xlink" xmlns:svgjs="http://svgjs.com/svgjs"><defs id="SvgjsDefs1151"><marker id="SvgjsMarker1161" markerWidth="14" markerHeight="10" refX="10" refY="5" viewBox="0 0 14 10" orient="auto" markerUnits="userSpaceOnUse" stroke-dasharray="0,0"><path id="SvgjsPath1162" d="M0,0 L14,5 L0,10 L0,0" fill="#323232" stroke="#323232" stroke-width="1"></path></marker><marker id="SvgjsMarker1173" markerWidth="14" markerHeight="10" refX="10" refY="5" viewBox="0 0 14 10" orient="auto" markerUnits="userSpaceOnUse" stroke-dasharray="0,0"><path id="SvgjsPath1174" d="M0,0 L14,5 L0,10 L0,0" fill="#323232" stroke="#323232" stroke-width="1"></path></marker><marker id="SvgjsMarker1201" markerWidth="14" markerHeight="10" refX="10" refY="5" viewBox="0 0 14 10" orient="auto" markerUnits="userSpaceOnUse" stroke-dasharray="0,0"><path id="SvgjsPath1202" d="M0,0 L14,5 L0,10 L0,0" fill="#323232" stroke="#323232" stroke-width="1"></path></marker><marker id="SvgjsMarker1209" markerWidth="14" markerHeight="10" refX="10" refY="5" viewBox="0 0 14 10" orient="auto" markerUnits="userSpaceOnUse" stroke-dasharray="0,0"><path id="SvgjsPath1210" d="M0,0 L14,5 L0,10 L0,0" fill="#323232" stroke="#323232" stroke-width="1"></path></marker><marker id="SvgjsMarker1217" markerWidth="14" markerHeight="10" refX="10" refY="5" viewBox="0 0 14 10" orient="auto" markerUnits="userSpaceOnUse" stroke-dasharray="0,0"><path id="SvgjsPath1218" d="M0,0 L14,5 L0,10 L0,0" fill="#323232" stroke="#323232" stroke-width="1"></path></marker></defs><rect id="svgbackgroundid" width="635" height="469" fill="#f5f5f5"></rect><g id="SvgjsG1153" transform="translate(25,25)"><path id="SvgjsPath1154" d="M 0 4Q 0 0 4 0L 96 0Q 100 0 100 4L 100 66Q 100 70 96 70L 4 70Q 0 70 0 66Z" stroke="rgba(50,50,50,1)" stroke-width="2" fill-opacity="1" fill="#ffffff"></path><g id="SvgjsG1155"><text id="SvgjsText1156" font-family="微软雅黑" text-anchor="middle" font-size="13px" width="80px" fill="#323232" font-weight="400" align="middle" lineHeight="125%" anchor="middle" family="微软雅黑" size="13px" weight="400" font-style="" opacity="1" y="24.375" transform="rotate(0)"><tspan id="SvgjsTspan1157" dy="16" x="50"><tspan id="SvgjsTspan1158" style="text-decoration:;">请求接口</tspan></tspan></text></g></g><g id="SvgjsG1159"><path id="SvgjsPath1160" d="M126 60L144.5 60L144.5 60L160.39999999999998 60" stroke="#323232" stroke-width="2" fill="none" marker-end="url(#SvgjsMarker1161)"></path></g><g id="SvgjsG1163" transform="translate(164,25)"><path id="SvgjsPath1164" d="M 0 4Q 0 0 4 0L 96 0Q 100 0 100 4L 100 66Q 100 70 96 70L 4 70Q 0 70 0 66Z" stroke="rgba(50,50,50,1)" stroke-width="2" fill-opacity="1" fill="#ffffff"></path><g id="SvgjsG1165"><text id="SvgjsText1166" font-family="微软雅黑" text-anchor="middle" font-size="13px" width="80px" fill="#323232" font-weight="400" align="middle" lineHeight="125%" anchor="middle" family="微软雅黑" size="13px" weight="400" font-style="" opacity="1" y="15.875" transform="rotate(0)"><tspan id="SvgjsTspan1167" dy="16" x="50"><tspan id="SvgjsTspan1168" style="text-decoration:;">验证key/验证</tspan></tspan><tspan id="SvgjsTspan1169" dy="16" x="50"><tspan id="SvgjsTspan1170" style="text-decoration:;">白名单</tspan></tspan></text></g></g><g id="SvgjsG1171"><path id="SvgjsPath1172" d="M265 60L285.5 60L285.5 60L303.4 60" stroke="#323232" stroke-width="2" fill="none" marker-end="url(#SvgjsMarker1173)"></path></g><g id="SvgjsG1175" transform="translate(307,25)"><path id="SvgjsPath1176" d="M 0 4Q 0 0 4 0L 96 0Q 100 0 100 4L 100 66Q 100 70 96 70L 4 70Q 0 70 0 66Z" stroke="rgba(50,50,50,1)" stroke-width="2" fill-opacity="1" fill="#ffffff"></path><g id="SvgjsG1177"><text id="SvgjsText1178" font-family="微软雅黑" text-anchor="middle" font-size="13px" width="80px" fill="#323232" font-weight="400" align="middle" lineHeight="125%" anchor="middle" family="微软雅黑" size="13px" weight="400" font-style="" opacity="1" y="24.375" transform="rotate(0)"><tspan id="SvgjsTspan1179" dy="16" x="50"><tspan id="SvgjsTspan1180" style="text-decoration:;">后端服务</tspan></tspan></text></g></g><g id="SvgjsG1181" transform="translate(104,374)"><path id="SvgjsPath1182" d="M 0 4Q 0 0 4 0L 96 0Q 100 0 100 4L 100 66Q 100 70 96 70L 4 70Q 0 70 0 66Z" stroke="rgba(50,50,50,1)" stroke-width="2" fill-opacity="1" fill="#ffffff"></path><g id="SvgjsG1183"><text id="SvgjsText1184" font-family="微软雅黑" text-anchor="middle" font-size="13px" width="80px" fill="#323232" font-weight="400" align="middle" lineHeight="125%" anchor="middle" family="微软雅黑" size="13px" weight="400" font-style="" opacity="1" y="24.375" transform="rotate(0)"><tspan id="SvgjsTspan1185" dy="16" x="50"><tspan id="SvgjsTspan1186" style="text-decoration:;">通道管理</tspan></tspan></text></g></g><g id="SvgjsG1187" transform="translate(307,374)"><path id="SvgjsPath1188" d="M 0 4Q 0 0 4 0L 96 0Q 100 0 100 4L 100 66Q 100 70 96 70L 4 70Q 0 70 0 66Z" stroke="rgba(50,50,50,1)" stroke-width="2" fill-opacity="1" fill="#ffffff"></path><g id="SvgjsG1189"><text id="SvgjsText1190" font-family="微软雅黑" text-anchor="middle" font-size="13px" width="80px" fill="#323232" font-weight="400" align="middle" lineHeight="125%" anchor="middle" family="微软雅黑" size="13px" weight="400" font-style="" opacity="1" y="24.375" transform="rotate(0)"><tspan id="SvgjsTspan1191" dy="16" x="50"><tspan id="SvgjsTspan1192" style="text-decoration:;">授权管理</tspan></tspan></text></g></g><g id="SvgjsG1193" transform="translate(510,374)"><path id="SvgjsPath1194" d="M 0 4Q 0 0 4 0L 96 0Q 100 0 100 4L 100 66Q 100 70 96 70L 4 70Q 0 70 0 66Z" stroke="rgba(50,50,50,1)" stroke-width="2" fill-opacity="1" fill="#ffffff"></path><g id="SvgjsG1195"><text id="SvgjsText1196" font-family="微软雅黑" text-anchor="middle" font-size="13px" width="80px" fill="#323232" font-weight="400" align="middle" lineHeight="125%" anchor="middle" family="微软雅黑" size="13px" weight="400" font-style="" opacity="1" y="24.375" transform="rotate(0)"><tspan id="SvgjsTspan1197" dy="16" x="50"><tspan id="SvgjsTspan1198" style="text-decoration:;">系统设置</tspan></tspan></text></g></g><g id="SvgjsG1199"><path id="SvgjsPath1200" d="M357 373L357 234.5L357 234.5L357 98.6" stroke="#323232" stroke-width="2" fill="none" marker-end="url(#SvgjsMarker1201)"></path><rect id="SvgjsRect1203" width="169" height="16" x="272.5" y="317.15" fill="#ffffff"></rect><text id="SvgjsText1204" font-family="微软雅黑" text-anchor="middle" font-size="13px" width="169px" fill="#323232" font-weight="400" align="top" lineHeight="16px" anchor="middle" family="微软雅黑" size="13px" weight="400" font-style="" opacity="1" y="314.525" transform="rotate(0)"><tspan id="SvgjsTspan1205" dy="16" x="357"><tspan id="SvgjsTspan1206" style="text-decoration:;">组合推送通道，建立访问授权</tspan></tspan></text></g><g id="SvgjsG1207"><path id="SvgjsPath1208" d="M560 373L560 234.5L357 234.5L357 98.6" stroke="#323232" stroke-width="2" fill="none" marker-end="url(#SvgjsMarker1209)"></path><rect id="SvgjsRect1211" width="78" height="16" x="420.80000000000007" y="226.5" fill="#ffffff"></rect><text id="SvgjsText1212" font-family="微软雅黑" text-anchor="middle" font-size="13px" width="78px" fill="#323232" font-weight="400" align="top" lineHeight="16px" anchor="middle" family="微软雅黑" size="13px" weight="400" font-style="" opacity="1" y="223.875" transform="rotate(0)"><tspan id="SvgjsTspan1213" dy="16" x="459.80000000000007"><tspan id="SvgjsTspan1214" style="text-decoration:;">一些系统设置</tspan></tspan></text></g><g id="SvgjsG1215"><path id="SvgjsPath1216" d="M154 373L154 234.5L357 234.5L357 98.6" stroke="#323232" stroke-width="2" fill="none" marker-end="url(#SvgjsMarker1217)"></path><rect id="SvgjsRect1219" width="78" height="16" x="215.2" y="226.5" fill="#ffffff"></rect><text id="SvgjsText1220" font-family="微软雅黑" text-anchor="middle" font-size="13px" width="78px" fill="#323232" font-weight="400" align="top" lineHeight="16px" anchor="middle" family="微软雅黑" size="13px" weight="400" font-style="" opacity="1" y="223.875" transform="rotate(0)"><tspan id="SvgjsTspan1221" dy="16" x="254.2"><tspan id="SvgjsTspan1222" style="text-decoration:;">设置推送通道</tspan></tspan></text></g></svg>